<svg width="20" height="20" viewBox="0 0 20 20" fill="none" xmlns="http://www.w3.org/2000/svg">
<path d="M12 9H8C8 7.89543 8.89543 7 10 7C11.1046 7 12 7.89543 12 9Z" fill="#00D88A"/>
<path d="M10 9C8.13252 9 6.56394 7.72024 6.12343 5.98988C5.98717 5.45467 6.44772 5 7 5H13C13.5523 5 14.0128 5.45467 13.8766 5.98988C13.4361 7.72024 11.8675 9 10 9Z" stroke="#00D88A" stroke-width="2"/>
<path d="M10 11C7.57879 11 5.55953 12.721 5.09873 15.0064C4.98957 15.5478 5.44772 16 6 16H14C14.5523 16 15.0104 15.5478 14.9013 15.0064C14.4405 12.721 12.4212 11 10 11Z" fill="#00D88A"/>
</svg>
