<svg width="20" height="20" viewBox="0 0 20 20" fill="none" xmlns="http://www.w3.org/2000/svg">
<path d="M10.4346 11.7824C10.1538 11.9107 9.85669 11.9748 9.55031 11.9748C9.24392 11.9748 8.9468 11.9107 8.66677 11.7831L3.8501 9.59355V13.3999C3.8501 15.271 6.7173 16.25 9.55031 16.25C12.3833 16.25 15.2505 15.271 15.2505 13.3999V9.59426L10.4346 11.7824Z" fill="#00D88A"/>
<path d="M17.6831 5.62622L9.8453 2.06359C9.6579 1.9788 9.44343 1.9788 9.25604 2.06359L1.41825 5.62622C1.16317 5.74165 1 5.9946 1 6.27462C1 6.55465 1.16317 6.80759 1.41754 6.92302L9.25533 10.4857C9.34938 10.5284 9.44985 10.5498 9.55031 10.5498C9.65078 10.5498 9.75125 10.5284 9.8453 10.4857L17.6831 6.92302C17.9375 6.80759 18.1006 6.55465 18.1006 6.27462C18.1006 5.9946 17.9375 5.74165 17.6831 5.62622Z" fill="#00D88A"/>
</svg>
