<svg width="80" height="42" viewBox="0 0 80 42" fill="none" xmlns="http://www.w3.org/2000/svg">
<path opacity="0.6" d="M2.43066 36.5874C2.06934 36.5874 1.75195 36.5386 1.47852 36.4409V35.6304C1.78125 35.7703 2.08887 35.8403 2.40137 35.8403C2.75944 35.8403 3.0459 35.759 3.26074 35.5962C3.47884 35.4302 3.69531 35.1209 3.91016 34.6685L1.13184 29.3511H2.0498L4.15918 33.4087C4.24056 33.5682 4.30404 33.7244 4.34961 33.8774H4.38867C4.47982 33.604 4.54329 33.4315 4.5791 33.3599L6.33203 29.3511H7.21094L4.93066 34.4585C4.65723 35.0672 4.40983 35.5099 4.18848 35.7866C3.97038 36.0633 3.72298 36.2668 3.44629 36.397C3.17285 36.5239 2.83431 36.5874 2.43066 36.5874ZM8.7832 31.1382V33.0913C8.7832 33.7163 9.13965 34.0288 9.85254 34.0288C10.1488 34.0288 10.432 33.9832 10.7021 33.8921C10.9723 33.8009 11.2783 33.6463 11.6201 33.4282V31.1382H12.4307V36.4897H11.6201V34.0679C11.2783 34.3022 10.9609 34.4683 10.668 34.5659C10.3783 34.6603 10.0495 34.7075 9.68164 34.7075C9.14779 34.7075 8.72949 34.5675 8.42676 34.2876C8.12402 34.0076 7.97266 33.6284 7.97266 33.1499V31.1382H8.7832ZM16.415 36.5874C15.624 36.5874 14.999 36.3465 14.54 35.8647C14.0843 35.383 13.8564 34.714 13.8564 33.8579C13.8564 32.9953 14.068 32.3101 14.4912 31.8022C14.9176 31.2944 15.4889 31.0405 16.2051 31.0405C16.8757 31.0405 17.4062 31.2619 17.7969 31.7046C18.1875 32.144 18.3828 32.7251 18.3828 33.4478V33.9604H14.6963C14.7126 34.5887 14.8704 35.0656 15.1699 35.3911C15.4727 35.7166 15.8975 35.8794 16.4443 35.8794C17.0205 35.8794 17.5902 35.759 18.1533 35.5181V36.2407C17.8669 36.3644 17.5951 36.4523 17.3379 36.5044C17.084 36.5597 16.7764 36.5874 16.415 36.5874ZM16.1953 31.7192C15.7656 31.7192 15.4222 31.8592 15.165 32.1392C14.9111 32.4191 14.7614 32.8065 14.7158 33.3013H17.5137C17.5137 32.7902 17.3997 32.3996 17.1719 32.1294C16.944 31.856 16.6185 31.7192 16.1953 31.7192ZM19.4912 33.2817C19.4912 32.1099 19.6637 31.1968 20.0088 30.5425C20.3538 29.8849 20.9007 29.4748 21.6494 29.312C22.5804 29.1134 23.4007 28.9523 24.1104 28.8286L24.2617 29.5415C23.1322 29.7303 22.3249 29.88 21.8398 29.9907C21.3678 30.0981 21.013 30.3521 20.7754 30.7524C20.541 31.1528 20.4124 31.6981 20.3896 32.3882H20.4482C20.6501 32.1147 20.9105 31.8999 21.2295 31.7437C21.5485 31.5874 21.8822 31.5093 22.2305 31.5093C22.888 31.5093 23.4007 31.7225 23.7686 32.1489C24.1364 32.5754 24.3203 33.1662 24.3203 33.9214C24.3203 34.758 24.1071 35.4123 23.6807 35.8843C23.2542 36.353 22.6602 36.5874 21.8984 36.5874C21.1465 36.5874 20.5573 36.2993 20.1309 35.7231C19.7044 35.147 19.4912 34.3332 19.4912 33.2817ZM21.9717 35.9087C22.9645 35.9087 23.4609 35.2756 23.4609 34.0093C23.4609 32.8016 23.0101 32.1978 22.1084 32.1978C21.861 32.1978 21.6217 32.2498 21.3906 32.354C21.1628 32.4549 20.9528 32.59 20.7607 32.7593C20.5719 32.9285 20.4255 33.1027 20.3213 33.2817C20.3213 34.1379 20.4564 34.7905 20.7266 35.2397C20.9967 35.6857 21.4118 35.9087 21.9717 35.9087ZM26.5469 31.1382V33.3794H29.5449V31.1382H30.3555V36.4897H29.5449V34.0776H26.5469V36.4897H25.7363V31.1382H26.5469ZM32.8848 33.3501H34.3447C35.0251 33.3501 35.528 33.4771 35.8535 33.731C36.1823 33.9816 36.3467 34.3576 36.3467 34.8589C36.3467 35.396 36.1725 35.8029 35.8242 36.0796C35.4792 36.353 34.9697 36.4897 34.2959 36.4897H32.0742V31.1382H32.8848V33.3501ZM38.0557 36.4897H37.2451V31.1382H38.0557V36.4897ZM32.8848 34.0483V35.811H34.2568C35.1162 35.811 35.5459 35.5099 35.5459 34.9077C35.5459 34.6082 35.4466 34.3901 35.248 34.2534C35.0495 34.1167 34.7109 34.0483 34.2324 34.0483H32.8848ZM40.541 31.1382V34.5317L40.5068 35.4204L40.4922 35.6987L43.3877 31.1382H44.3984V36.4897H43.6416V33.2183L43.6562 32.5737L43.6807 31.939L40.79 36.4897H39.7793V31.1382H40.541ZM42.0693 30.4302C41.4671 30.4302 41.0277 30.3146 40.751 30.0835C40.4743 29.8491 40.3197 29.465 40.2871 28.9312H41.0488C41.0781 29.2697 41.166 29.5057 41.3125 29.6392C41.4622 29.7726 41.721 29.8394 42.0889 29.8394C42.4242 29.8394 42.6715 29.7677 42.8311 29.6245C42.9938 29.4813 43.0931 29.2502 43.1289 28.9312H43.8955C43.8564 29.4455 43.6921 29.8247 43.4023 30.0688C43.1126 30.3097 42.6683 30.4302 42.0693 30.4302ZM53.9346 38.3403H53.124V36.4897H48.7148V31.1382H49.5254V35.7915H52.3672V31.1382H53.1777V35.7915H53.9346V38.3403ZM57.2354 36.5874C56.4443 36.5874 55.8193 36.3465 55.3604 35.8647C54.9046 35.383 54.6768 34.714 54.6768 33.8579C54.6768 32.9953 54.8883 32.3101 55.3115 31.8022C55.738 31.2944 56.3092 31.0405 57.0254 31.0405C57.696 31.0405 58.2266 31.2619 58.6172 31.7046C59.0078 32.144 59.2031 32.7251 59.2031 33.4478V33.9604H55.5166C55.5329 34.5887 55.6908 35.0656 55.9902 35.3911C56.293 35.7166 56.7178 35.8794 57.2646 35.8794C57.8408 35.8794 58.4105 35.759 58.9736 35.5181V36.2407C58.6872 36.3644 58.4154 36.4523 58.1582 36.5044C57.9043 36.5597 57.5967 36.5874 57.2354 36.5874ZM57.0156 31.7192C56.5859 31.7192 56.2425 31.8592 55.9854 32.1392C55.7314 32.4191 55.5817 32.8065 55.5361 33.3013H58.334C58.334 32.7902 58.2201 32.3996 57.9922 32.1294C57.7643 31.856 57.4388 31.7192 57.0156 31.7192ZM61.4004 31.1382V33.3794H64.3984V31.1382H65.209V36.4897H64.3984V34.0776H61.4004V36.4897H60.5898V31.1382H61.4004ZM70.5361 31.8315H68.7979V36.4897H67.9873V31.8315H66.2686V31.1382H70.5361V31.8315ZM74.0859 36.5874C73.7376 36.5874 73.4186 36.5239 73.1289 36.397C72.8424 36.2668 72.6016 36.0682 72.4062 35.8013H72.3477C72.3867 36.1138 72.4062 36.41 72.4062 36.6899V38.8921H71.5957V31.1382H72.2549L72.3672 31.8706H72.4062C72.6146 31.5776 72.8571 31.366 73.1338 31.2358C73.4105 31.1056 73.7279 31.0405 74.0859 31.0405C74.7956 31.0405 75.3424 31.283 75.7266 31.7681C76.1139 32.2531 76.3076 32.9334 76.3076 33.8091C76.3076 34.688 76.1107 35.3716 75.7168 35.8599C75.3262 36.3449 74.7826 36.5874 74.0859 36.5874ZM73.9688 31.729C73.4219 31.729 73.0264 31.8804 72.7822 32.1831C72.5381 32.4858 72.4128 32.9676 72.4062 33.6284V33.8091C72.4062 34.561 72.5316 35.0998 72.7822 35.4253C73.0329 35.7476 73.4349 35.9087 73.9883 35.9087C74.4505 35.9087 74.8118 35.7215 75.0723 35.3472C75.3359 34.9728 75.4678 34.4569 75.4678 33.7993C75.4678 33.132 75.3359 32.6209 75.0723 32.2661C74.8118 31.908 74.444 31.729 73.9688 31.729Z" fill="#32325D"/>
<path d="M45.3933 5.88052H34.4187V25.8831H45.3933V5.88052Z" fill="white"/>
<path d="M9.69469 9.27185C11.016 9.27185 12.5083 9.58407 13.7467 10.0867V12.9475C12.4668 12.3408 11.1041 11.9448 9.69469 11.9448C7.07279 11.9448 4.89652 13.7191 4.89652 16.9581C4.89652 20.1971 7.0702 21.9715 9.69469 21.9715C11.1015 21.9715 12.4668 21.5755 13.7467 20.9688V23.8296C12.5109 24.3322 11.0186 24.6444 9.69469 24.6444C4.94056 24.6469 2 21.1389 2 16.9607C2 12.7825 4.94056 9.27185 9.69469 9.27185Z" fill="#32325D"/>
<path d="M29.4497 9.64985V24.271H26.6775V12.1146H22.4804C22.1384 20.9914 20.9648 24.0426 16.8506 24.7102L16.0837 22.4738C19.1953 21.89 19.5166 18.255 19.8352 9.64731H29.4497V9.64985Z" fill="#32325D"/>
<path d="M35.8416 5.2712C33.9306 5.60888 32.5376 7.26955 32.5376 9.21018V23.4377C32.5376 25.925 34.7835 27.8092 37.2329 27.3768L43.3399 26.2988C45.2512 25.9614 46.6445 24.3006 46.6445 22.3597V8.13108C46.6445 5.64351 44.3981 3.75925 41.9485 4.1921L35.8416 5.2712ZM41.7246 5.93117C42.4915 5.93117 43.0899 6.53784 43.0899 7.24606C43.0899 7.9365 42.4941 8.52033 41.7246 8.52033C41.0199 8.52033 40.4033 7.9365 40.4033 7.24606C40.4033 6.5353 41.0199 5.93117 41.7246 5.93117ZM37.5249 5.93117C38.271 5.93117 38.8669 6.53784 38.8669 7.24606C38.8669 7.9365 38.271 8.52033 37.5249 8.52033C36.8202 8.52033 36.2036 7.9365 36.2036 7.24606C36.2036 6.5353 36.8202 5.93117 37.5249 5.93117ZM43.9216 23.0387C43.9216 23.7193 43.3698 24.2711 42.6892 24.2711H39.2657C37.0566 24.2711 35.2657 22.4802 35.2657 20.2711V13.6499C35.2657 11.4408 37.0566 9.64992 39.2657 9.64992H42.456C43.1367 9.64992 43.6884 10.2017 43.6884 10.8823C43.6884 11.5629 43.1367 12.1147 42.456 12.1147H39.7297C38.7953 12.1147 38.0379 12.8722 38.0379 13.8066C38.0379 14.7409 38.7953 15.4984 39.7297 15.4984H41.9638C42.6444 15.4984 43.1962 16.0502 43.1962 16.7308C43.1962 17.4114 42.6444 17.9632 41.9638 17.9632H39.9594C38.8982 17.9632 38.0379 18.8235 38.0379 19.8848C38.0379 20.946 38.8982 21.8063 39.9594 21.8063H42.6892C43.3698 21.8063 43.9216 22.3581 43.9216 23.0387Z" fill="#2F4DF9"/>
<path d="M52.3002 24.271H49.5281V9.64978H54.4092C57.0518 9.64978 59.5674 11.216 59.5674 14.2671C59.5674 17.463 57.0725 18.9048 54.4299 18.9048H52.2976V24.271H52.3002ZM52.3002 16.7091H53.8573C55.7123 16.7091 56.6709 15.8308 56.6709 14.2646C56.6709 12.7187 55.7123 11.9039 53.8573 11.9039H52.3002V16.7091Z" fill="#32325D"/>
<path d="M69.7909 21.3467L65.1223 13.3457V24.271H62.3501V9.64978H65.9306L70.1096 16.6278L74.2885 9.64978H77.869V24.271H75.0969V13.3457L70.4282 21.3467H69.7909Z" fill="#32325D"/>
</svg>
