<svg width="20" height="26" viewBox="0 0 20 26" fill="none" xmlns="http://www.w3.org/2000/svg">
<path opacity="0.4" d="M3.492 26V0.295998H10.26C13.404 0.295998 15.732 0.931999 17.244 2.204C18.78 3.476 19.548 5.324 19.548 7.748C19.548 9.38 19.176 10.784 18.432 11.96C17.688 13.112 16.584 14 15.12 14.624C13.68 15.248 11.892 15.56 9.756 15.56H6.732V26H3.492ZM0.36 21.104V18.764H12.672V21.104H0.36ZM0.36 15.56V12.824H8.604V15.56H0.36ZM9.288 12.824C10.752 12.824 11.988 12.668 12.996 12.356C14.028 12.044 14.82 11.528 15.372 10.808C15.924 10.088 16.2 9.104 16.2 7.856C16.2 6.224 15.696 5.012 14.688 4.22C13.68 3.428 12.108 3.032 9.972 3.032H6.732V12.824H9.288Z" fill="white"/>
</svg>
